<?xml version="1.0" encoding="iso-8859-1"?>
<!-- Generator: Adobe Illustrator 19.0.0, SVG Export Plug-In . SVG Version: 6.00 Build 0)  -->
<svg version="1.1" id="Capa_1" xmlns="http://www.w3.org/2000/svg" xmlns:xlink="http://www.w3.org/1999/xlink" x="0px" y="0px"
	 viewBox="0 0 512.025 512.025" style="enable-background:new 0 0 512.025 512.025;" xml:space="preserve">
<g>
	
		<linearGradient id="SVGID_1_" gradientUnits="userSpaceOnUse" x1="-38.7454" y1="637.7663" x2="-38.7454" y2="574.2363" gradientTransform="matrix(8.5333 0 0 -8.5333 369.0397 5433.2227)">
		<stop  offset="0" style="stop-color:#FC5C7D"/>
		<stop  offset="0.129" style="stop-color:#F35E85"/>
		<stop  offset="0.343" style="stop-color:#D9659B"/>
		<stop  offset="0.616" style="stop-color:#B070BF"/>
		<stop  offset="0.934" style="stop-color:#777FF0"/>
		<stop  offset="1" style="stop-color:#6A82FB"/>
	</linearGradient>

		<linearGradient id="SVGID_2_" gradientUnits="userSpaceOnUse" x1="-13.2439" y1="637.7663" x2="-13.2439" y2="574.2363" gradientTransform="matrix(8.5333 0 0 -8.5333 369.0397 5433.2227)">
		<stop  offset="0" style="stop-color:#FC5C7D"/>
		<stop  offset="0.129" style="stop-color:#F35E85"/>
		<stop  offset="0.343" style="stop-color:#D9659B"/>
		<stop  offset="0.616" style="stop-color:#B070BF"/>
		<stop  offset="0.934" style="stop-color:#777FF0"/>
		<stop  offset="1" style="stop-color:#6A82FB"/>
	</linearGradient>
	<path style="fill:url(#SVGID_2_);" d="M8.546,247.479c0.068,24.695,13.414,47.454,34.935,59.571
		c-19.004,32.444-8.115,74.155,24.337,93.167c8.149,4.77,17.195,7.799,26.573,8.883c4.096,34.33,33.186,60.194,67.755,60.245
		c0.256,0,0.503-0.051,0.759-0.051c4.642,27.853,30.985,46.669,58.846,42.027c14.02-2.338,26.436-10.402,34.261-22.263
		c15.565,23.561,47.283,30.046,70.844,14.481c11.981-7.91,20.079-20.497,22.323-34.679c31.189-3.652,55.885-28.092,59.844-59.247
		c0.196,0,0.393,0.043,0.589,0.043c37.7,0.009,68.275-30.549,68.284-68.25c0-7.168-1.126-14.302-3.345-21.12
		c30.797-21.666,38.195-64.188,16.529-94.985c-5.888-8.363-13.577-15.3-22.502-20.284c19.029-32.435,8.158-74.155-24.277-93.184
		c-8.175-4.796-17.254-7.834-26.667-8.909c-4.096-34.33-33.186-60.194-67.755-60.245c-0.256,0-0.503,0.051-0.759,0.051
		c-4.642-27.853-30.985-46.669-58.846-42.027c-14.02,2.33-26.428,10.402-34.261,22.263C240.448-0.593,208.729-7.079,185.169,8.486
		c-11.981,7.91-20.079,20.497-22.323,34.679c-31.206,3.652-55.902,28.117-59.844,59.29c-0.196,0-0.393-0.043-0.589-0.043
		c-37.7-0.009-68.275,30.549-68.284,68.25c0,7.168,1.126,14.302,3.345,21.12C19.349,204.539,8.563,225.309,8.546,247.479z
		 M76.812,196.279v-17.067c-8.166,0.017-16.256,1.502-23.893,4.403c-7.245-27.23,8.96-55.177,36.19-62.421
		c4.343-1.161,8.815-1.732,13.303-1.715c0.179,0,0.358,0,0.546,0c2.517,20.523,14.251,38.784,31.881,49.596l8.969-14.507
		c-24.064-14.848-31.539-46.396-16.683-70.46c7.893-12.791,21.018-21.47,35.874-23.731c2.039,11.187,7.74,21.385,16.213,28.971
		l11.383-12.715c-14.054-12.561-15.258-34.142-2.697-48.196c12.561-14.054,34.142-15.258,48.196-2.697
		c7.253,6.485,11.392,15.744,11.383,25.472v17.067h17.067V51.212c0-18.85,15.283-34.133,34.133-34.133s34.133,15.283,34.133,34.133
		c0,10.743-5.06,20.864-13.653,27.307l10.24,13.653c10.496-7.842,17.545-19.439,19.678-32.367c0.265,0,0.529-0.06,0.794-0.06
		c25.216,0.026,46.66,18.415,50.534,43.332c-3.482,0.452-6.929,1.178-10.3,2.159l4.864,16.367
		c27.102-8.064,55.612,7.373,63.676,34.475s-7.373,55.612-34.475,63.676c-4.719,1.408-9.626,2.116-14.549,2.125
		c-7.586,0.017-15.087-1.664-21.939-4.924l-7.322,15.411c26.129,12.39,57.225,6.963,77.611-13.551
		c25.301,12.518,35.669,43.179,23.151,68.48c-8.636,17.451-26.428,28.484-45.901,28.45v17.067
		c8.166-0.017,16.256-1.502,23.893-4.403c7.245,27.23-8.96,55.177-36.19,62.421c-4.343,1.152-8.815,1.732-13.303,1.715
		c-0.179,0-0.358,0-0.546,0c-2.517-20.523-14.251-38.784-31.881-49.596l-8.969,14.507c24.064,14.848,31.539,46.396,16.683,70.46
		c-7.893,12.791-21.018,21.47-35.874,23.731c-2.039-11.187-7.74-21.385-16.213-28.971l-11.383,12.715
		c14.054,12.561,15.258,34.142,2.697,48.196c-12.561,14.054-34.142,15.258-48.196,2.697c-7.253-6.485-11.392-15.744-11.383-25.472
		v-17.067h-17.067v17.067c0,18.85-15.283,34.133-34.133,34.133s-34.133-15.283-34.133-34.133c0-10.743,5.06-20.864,13.653-27.307
		l-10.24-13.653c-10.496,7.842-17.545,19.439-19.678,32.367c-0.265,0-0.529,0.06-0.794,0.06
		c-25.216-0.026-46.66-18.415-50.534-43.332c3.482-0.452,6.929-1.178,10.3-2.159l-4.864-16.367
		c-27.102,8.064-55.612-7.373-63.676-34.475c-8.064-27.102,7.373-55.612,34.475-63.676c4.719-1.408,9.626-2.116,14.549-2.125
		c7.586-0.017,15.087,1.664,21.939,4.924l7.322-15.411c-26.129-12.39-57.225-6.963-77.611,13.551
		c-25.301-12.518-35.669-43.179-23.151-68.48C39.547,207.279,57.339,196.245,76.812,196.279z"/>
	
		<linearGradient id="SVGID_3_" gradientUnits="userSpaceOnUse" x1="-18.9124" y1="637.7663" x2="-18.9124" y2="574.2363" gradientTransform="matrix(8.5333 0 0 -8.5333 369.0397 5433.2227)">
		<stop  offset="0" style="stop-color:#FC5C7D"/>
		<stop  offset="0.129" style="stop-color:#F35E85"/>
		<stop  offset="0.343" style="stop-color:#D9659B"/>
		<stop  offset="0.616" style="stop-color:#B070BF"/>
		<stop  offset="0.934" style="stop-color:#777FF0"/>
		<stop  offset="1" style="stop-color:#6A82FB"/>
	</linearGradient>
	<path style="fill:url(#SVGID_3_);" d="M236.096,157.026l-5.683-16.102c-30.669,10.88-51.174,39.885-51.2,72.422h17.067
		C196.313,188.044,212.254,165.491,236.096,157.026z"/>
	
		<linearGradient id="SVGID_4_" gradientUnits="userSpaceOnUse" x1="-13.2454" y1="637.7663" x2="-13.2454" y2="574.2363" gradientTransform="matrix(8.5333 0 0 -8.5333 369.0397 5433.2227)">
		<stop  offset="0" style="stop-color:#FC5C7D"/>
		<stop  offset="0.129" style="stop-color:#F35E85"/>
		<stop  offset="0.343" style="stop-color:#D9659B"/>
		<stop  offset="0.616" style="stop-color:#B070BF"/>
		<stop  offset="0.934" style="stop-color:#777FF0"/>
		<stop  offset="1" style="stop-color:#6A82FB"/>
	</linearGradient>
	<path style="fill:url(#SVGID_4_);" d="M262.66,153.979l1.886-16.964c-5.675-0.623-11.392-0.623-17.067,0l1.869,16.964
		C253.768,153.493,258.24,153.493,262.66,153.979z"/>
	
		<linearGradient id="SVGID_5_" gradientUnits="userSpaceOnUse" x1="-13.2454" y1="637.7663" x2="-13.2454" y2="574.2363" gradientTransform="matrix(8.5333 0 0 -8.5333 369.0397 5433.2227)">
		<stop  offset="0" style="stop-color:#FC5C7D"/>
		<stop  offset="0.129" style="stop-color:#F35E85"/>
		<stop  offset="0.343" style="stop-color:#D9659B"/>
		<stop  offset="0.616" style="stop-color:#B070BF"/>
		<stop  offset="0.934" style="stop-color:#777FF0"/>
		<stop  offset="1" style="stop-color:#6A82FB"/>
	</linearGradient>
	<path style="fill:url(#SVGID_5_);" d="M196.279,306.726v19.123c-13.235,4.582-20.258,19.021-15.676,32.256
		c1.135,3.277,2.927,6.281,5.265,8.841c-9.489,10.402-8.747,26.522,1.655,36.011c4.727,4.309,10.897,6.69,17.289,6.656h102.4
		c14.08,0.06,25.54-11.298,25.6-25.378c0.026-6.391-2.347-12.57-6.656-17.289c9.463-10.325,8.755-26.368-1.57-35.831
		c-2.551-2.338-5.564-4.13-8.841-5.265v-19.123c51.627-32.99,66.731-101.581,33.741-153.207s-101.581-66.739-153.207-33.749
		s-66.731,101.581-33.741,153.207C171.2,286.545,182.72,298.056,196.279,306.726z M307.212,392.546h-102.4
		c-4.71,0-8.533-3.823-8.533-8.533c0-4.71,3.823-8.533,8.533-8.533h102.4c4.71,0,8.533,3.823,8.533,8.533
		C315.746,388.723,311.923,392.546,307.212,392.546z M307.212,358.412h-102.4c-4.71,0-8.533-3.823-8.533-8.533
		c0-4.71,3.823-8.533,8.533-8.533h102.4c4.71,0,8.533,3.823,8.533,8.533C315.746,354.589,311.923,358.412,307.212,358.412z
		 M256.012,119.479c51.814-0.026,93.841,41.95,93.867,93.764c0.017,33.545-17.877,64.555-46.933,81.314
		c-2.637,1.519-4.267,4.335-4.267,7.381v22.34h-34.133v-47.667l31.633-31.633l-12.066-12.066l-28.1,28.1l-28.1-28.1l-12.066,12.066
		l31.633,31.633v47.667h-34.133v-22.34c0-3.046-1.63-5.862-4.267-7.381c-44.877-25.89-60.271-83.26-34.381-128.145
		C191.458,137.356,222.468,119.453,256.012,119.479z"/>
	
		<linearGradient id="SVGID_6_" gradientUnits="userSpaceOnUse" x1="-42.2454" y1="637.7663" x2="-42.2454" y2="574.2363" gradientTransform="matrix(8.5333 0 0 -8.5333 369.0397 5433.2227)">
		<stop  offset="0" style="stop-color:#FC5C7D"/>
		<stop  offset="0.129" style="stop-color:#F35E85"/>
		<stop  offset="0.343" style="stop-color:#D9659B"/>
		<stop  offset="0.616" style="stop-color:#B070BF"/>
		<stop  offset="0.934" style="stop-color:#777FF0"/>
		<stop  offset="1" style="stop-color:#6A82FB"/>
	</linearGradient>
	
		<linearGradient id="SVGID_7_" gradientUnits="userSpaceOnUse" x1="12.2546" y1="637.7663" x2="12.2546" y2="574.2363" gradientTransform="matrix(8.5333 0 0 -8.5333 369.0397 5433.2227)">
		<stop  offset="0" style="stop-color:#FC5C7D"/>
		<stop  offset="0.129" style="stop-color:#F35E85"/>
		<stop  offset="0.343" style="stop-color:#D9659B"/>
		<stop  offset="0.616" style="stop-color:#B070BF"/>
		<stop  offset="0.934" style="stop-color:#777FF0"/>
		<stop  offset="1" style="stop-color:#6A82FB"/>
	</linearGradient>

		<linearGradient id="SVGID_8_" gradientUnits="userSpaceOnUse" x1="15.7546" y1="637.7663" x2="15.7546" y2="574.2363" gradientTransform="matrix(8.5333 0 0 -8.5333 369.0397 5433.2227)">
		<stop  offset="0" style="stop-color:#FC5C7D"/>
		<stop  offset="0.129" style="stop-color:#F35E85"/>
		<stop  offset="0.343" style="stop-color:#D9659B"/>
		<stop  offset="0.616" style="stop-color:#B070BF"/>
		<stop  offset="0.934" style="stop-color:#777FF0"/>
		<stop  offset="1" style="stop-color:#6A82FB"/>
	</linearGradient>
</g>
<g>
</g>
<g>
</g>
<g>
</g>
<g>
</g>
<g>
</g>
<g>
</g>
<g>
</g>
<g>
</g>
<g>
</g>
<g>
</g>
<g>
</g>
<g>
</g>
<g>
</g>
<g>
</g>
<g>
</g>
</svg>
